<svg width="24" height="24" viewBox="0 0 24 24" fill="none" xmlns="http://www.w3.org/2000/svg">
<path d="M6.64431 2.625H6.64356C4.08831 2.625 2.07606 4.10887 1.12244 6.69562C-1.04806 12.5869 6.83256 17.7503 10.1974 19.9545C10.7393 20.3093 11.3532 20.7116 11.4739 20.8373L11.9442 21.375L12.4681 20.8905C12.5551 20.814 12.9574 20.5564 13.3463 20.3074C16.5732 18.2419 25.1434 12.7545 22.8721 6.68812C21.9098 4.11675 19.8942 2.64188 17.3438 2.64188C15.1898 2.64188 13.0591 3.678 11.9764 5.09962C10.8582 3.65625 8.75444 2.625 6.64431 2.625Z" fill="url(#paint0_linear)"/>
<defs>
<linearGradient id="paint0_linear" x1="0.75" y1="12" x2="23.2502" y2="12" gradientUnits="userSpaceOnUse">
<stop stop-color="#8DE2A5"/>
<stop offset="1" stop-color="#45D2E6" stop-opacity="0.88"/>
</linearGradient>
</defs>
</svg>
