<svg width="32" height="32" viewBox="0 0 32 32" fill="none" xmlns="http://www.w3.org/2000/svg">
<path d="M8.30006 6.41467C8.0486 6.17179 7.71179 6.0374 7.3622 6.04044C7.0126 6.04348 6.67818 6.1837 6.43097 6.43091C6.18376 6.67813 6.04354 7.01254 6.0405 7.36214C6.03746 7.71173 6.17185 8.04854 6.41473 8.30001L14.1147 16L6.4134 23.7C6.28605 23.823 6.18447 23.9701 6.1146 24.1328C6.04472 24.2955 6.00794 24.4704 6.0064 24.6475C6.00486 24.8245 6.03859 25.0001 6.10564 25.1639C6.17268 25.3278 6.27168 25.4767 6.39687 25.6019C6.52206 25.7271 6.67093 25.8261 6.83479 25.8931C6.99865 25.9601 7.17423 25.9939 7.35127 25.9923C7.52831 25.9908 7.70327 25.954 7.86594 25.8841C8.02861 25.8143 8.17574 25.7127 8.29873 25.5853L16.0001 17.8853L23.7001 25.5853C23.9515 25.8282 24.2883 25.9626 24.6379 25.9596C24.9875 25.9565 25.3219 25.8163 25.5692 25.5691C25.8164 25.3219 25.9566 24.9875 25.9596 24.6379C25.9627 24.2883 25.8283 23.9515 25.5854 23.7L17.8854 16L25.5854 8.30001C25.8283 8.04854 25.9627 7.71173 25.9596 7.36214C25.9566 7.01254 25.8164 6.67813 25.5692 6.43091C25.3219 6.1837 24.9875 6.04348 24.6379 6.04044C24.2883 6.0374 23.9515 6.17179 23.7001 6.41467L16.0001 14.1147L8.30006 6.41334V6.41467Z" fill="#7ADDDD"/>
</svg>
