<svg width="82" height="22" viewBox="0 0 82 22" fill="none" xmlns="http://www.w3.org/2000/svg">
<path d="M13.0156 16.8984H5.82422L4.45703 21H0.0957031L7.50586 1.09375H11.3066L18.7578 21H14.3965L13.0156 16.8984ZM6.93164 13.5762H11.9082L9.40625 6.125L6.93164 13.5762ZM19.7422 13.4941C19.7422 11.1882 20.2572 9.35156 21.2871 7.98438C22.3262 6.61719 23.7435 5.93359 25.5391 5.93359C26.9792 5.93359 28.1686 6.47135 29.1074 7.54688V0H33.0723V21H29.5039L29.3125 19.4277C28.3281 20.6582 27.0612 21.2734 25.5117 21.2734C23.7708 21.2734 22.3717 20.5898 21.3145 19.2227C20.2663 17.8464 19.7422 15.9368 19.7422 13.4941ZM23.6934 13.7812C23.6934 15.1667 23.9349 16.2285 24.418 16.9668C24.901 17.7051 25.6029 18.0742 26.5234 18.0742C27.7448 18.0742 28.6061 17.5592 29.1074 16.5293V10.6914C28.6152 9.66146 27.763 9.14648 26.5508 9.14648C24.6458 9.14648 23.6934 10.6914 23.6934 13.7812ZM35.5195 13.4668C35.5195 11.9993 35.8021 10.6914 36.3672 9.54297C36.9323 8.39453 37.7435 7.50586 38.8008 6.87695C39.8672 6.24805 41.1022 5.93359 42.5059 5.93359C44.502 5.93359 46.1289 6.54427 47.3867 7.76562C48.6536 8.98698 49.36 10.6458 49.5059 12.7422L49.5332 13.7539C49.5332 16.0234 48.8997 17.8464 47.6328 19.2227C46.3659 20.5898 44.666 21.2734 42.5332 21.2734C40.4004 21.2734 38.696 20.5898 37.4199 19.2227C36.153 17.8555 35.5195 15.9961 35.5195 13.6445V13.4668ZM39.4707 13.7539C39.4707 15.1576 39.735 16.2331 40.2637 16.9805C40.7923 17.7188 41.5488 18.0879 42.5332 18.0879C43.4902 18.0879 44.2376 17.7233 44.7754 16.9941C45.3132 16.2559 45.582 15.0801 45.582 13.4668C45.582 12.0905 45.3132 11.0241 44.7754 10.2676C44.2376 9.51107 43.4811 9.13281 42.5059 9.13281C41.5397 9.13281 40.7923 9.51107 40.2637 10.2676C39.735 11.015 39.4707 12.1771 39.4707 13.7539ZM56.6973 2.57031V6.20703H59.2266V9.10547H56.6973V16.4883C56.6973 17.0352 56.8021 17.4271 57.0117 17.6641C57.2214 17.901 57.6224 18.0195 58.2148 18.0195C58.6523 18.0195 59.0397 17.9876 59.377 17.9238V20.918C58.6022 21.1549 57.8047 21.2734 56.9844 21.2734C54.2135 21.2734 52.8008 19.8743 52.7461 17.0762V9.10547H50.5859V6.20703H52.7461V2.57031H56.6973ZM68.2363 21.2734C66.0671 21.2734 64.2988 20.6081 62.9316 19.2773C61.5736 17.9466 60.8945 16.1738 60.8945 13.959V13.5762C60.8945 12.0905 61.1816 10.7643 61.7559 9.59766C62.3301 8.42188 63.1413 7.51953 64.1895 6.89062C65.2467 6.2526 66.4499 5.93359 67.7988 5.93359C69.8223 5.93359 71.4128 6.57161 72.5703 7.84766C73.737 9.1237 74.3203 10.9329 74.3203 13.2754V14.8887H64.9004C65.028 15.8548 65.4108 16.6296 66.0488 17.2129C66.696 17.7962 67.5117 18.0879 68.4961 18.0879C70.0182 18.0879 71.2077 17.5365 72.0645 16.4336L74.0059 18.6074C73.4134 19.446 72.6113 20.1022 71.5996 20.5762C70.5879 21.041 69.4668 21.2734 68.2363 21.2734ZM67.7852 9.13281C67.0013 9.13281 66.3633 9.39714 65.8711 9.92578C65.388 10.4544 65.0781 11.2109 64.9414 12.1953H70.4375V11.8809C70.4193 11.0059 70.1823 10.3314 69.7266 9.85742C69.2708 9.37435 68.6237 9.13281 67.7852 9.13281Z" fill="#212123"/>
<path d="M76.7812 19.0586C76.7812 18.4297 76.9909 17.9193 77.4102 17.5273C77.8385 17.1354 78.3717 16.9395 79.0098 16.9395C79.6569 16.9395 80.1901 17.1354 80.6094 17.5273C81.0378 17.9193 81.252 18.4297 81.252 19.0586C81.252 19.6784 81.0423 20.1842 80.623 20.5762C80.2038 20.959 79.666 21.1504 79.0098 21.1504C78.3626 21.1504 77.8294 20.959 77.4102 20.5762C76.9909 20.1842 76.7812 19.6784 76.7812 19.0586Z" fill="#7ADDDD"/>
</svg>
