<svg width="80" height="80" viewBox="0 0 80 80" fill="none" xmlns="http://www.w3.org/2000/svg">
<path d="M47.3435 70.0583V75.7986C47.3435 78.1938 45.6436 80 43.3906 80H36.6097C34.3567 80 32.6567 78.1938 32.6567 75.7986V70.0583C32.6567 68.7646 33.7067 67.7147 35.0004 67.7147H44.9999C46.2935 67.7147 47.3435 68.7646 47.3435 70.0583Z" fill="#E1F3FF"/>
<path d="M47.3434 70.0583V75.7986C47.3434 78.1938 45.6435 80 43.3905 80H40V67.7147H44.9997C46.2934 67.7147 47.3434 68.7646 47.3434 70.0583Z" fill="#93C6EC"/>
<path d="M32.5909 11.8878C31.3406 8.45035 28.5022 5.11271 24.801 2.72892C20.9754 0.264986 17.1948 -0.583096 14.4281 0.40076C11.5665 1.41883 9.73893 4.33009 9.28224 8.59784C8.66336 14.3782 10.7073 19.4524 10.7073 19.531C11.7845 22.5585 13.7689 25.262 16.2948 27.1435C17.4576 28.0094 19.1247 27.6214 19.7842 26.3287C22.4933 21.0164 26.6971 16.8446 31.3178 14.8827C32.4409 14.4058 33.0498 13.1218 32.5909 11.8878Z" fill="#FF9D21"/>
<path d="M70.7179 8.5981C70.261 4.33035 68.4334 1.41909 65.5719 0.401015C62.8054 -0.582842 59.0247 0.265553 55.1991 2.72918C51.7921 4.92344 48.8366 8.08937 47.4045 11.9006C46.9622 13.0765 47.5257 14.3919 48.6821 14.8829C53.3028 16.8449 57.5067 21.0167 60.2157 26.3289C60.8748 27.621 62.5419 28.0101 63.7049 27.1437C66.2311 25.2624 68.2155 22.559 69.2926 19.5313C69.2928 19.4786 71.3327 14.3406 70.7179 8.5981Z" fill="#FF7038"/>
<path d="M77.3419 50.8468C77.3419 64.0742 67.2315 74.8362 54.8024 74.8362C49.3465 74.8362 43.9749 72.8675 40.0001 69.4833C36.0253 72.8675 30.6537 74.8362 25.1977 74.8362C12.7686 74.8362 2.6582 64.0742 2.6582 50.8468C2.6582 42.7988 6.1924 35.7069 12.3765 31.2915C12.8686 30.3791 13.4827 29.2588 13.6326 28.9401C17.099 18.3531 26.2915 8.90204 37.5002 8.90204H42.4999C53.6814 8.90204 62.8858 18.3141 66.3675 28.9401C66.5143 29.251 67.0206 30.1728 67.6237 31.2915C73.8077 35.7069 77.3419 42.7988 77.3419 50.8468Z" fill="#FFDD54"/>
<path d="M77.3419 50.8468C77.3419 64.0742 67.2314 74.8362 54.8024 74.8362C49.3464 74.8362 43.9748 72.8675 40 69.4833V8.90204H42.4999C53.7009 8.90204 62.8929 18.337 66.3674 28.9401C66.5137 29.2509 67.0207 30.1735 67.6236 31.2915C73.8077 35.7069 77.3419 42.7988 77.3419 50.8468Z" fill="#FF9D21"/>
<path d="M48.5763 19.1296C48.2966 23.931 44.5312 27.6917 40.0002 27.6917C35.2614 27.6917 31.4069 23.595 31.4069 18.5594C31.4069 10.8254 31.3798 11.7881 31.4865 9.82855C33.4099 9.22858 35.4223 8.90204 37.5003 8.90204H42.5001C44.5843 8.90204 46.5983 9.22858 48.5185 9.82855C48.5685 10.7848 48.5935 11.4519 48.5935 11.6535C48.5935 17.6844 48.5982 18.7531 48.5763 19.1296Z" fill="#FF9D21"/>
<path d="M48.5761 19.1296C48.2965 23.931 44.531 27.6917 40 27.6917V8.90203C43.0097 8.90203 45.1499 8.7761 48.5183 9.82855C48.5683 10.7848 48.5933 11.4519 48.5933 11.6535C48.5933 17.6844 48.598 18.7531 48.5761 19.1296Z" fill="#FF7038"/>
<path d="M27.5009 42.3378C26.2065 42.3378 25.1572 41.2885 25.1572 39.9942V37.4943C25.1572 36.2 26.2065 35.1507 27.5009 35.1507C28.7952 35.1507 29.8445 36.2 29.8445 37.4943V39.9942C29.8445 41.2885 28.7952 42.3378 27.5009 42.3378Z" fill="#453D81"/>
<path d="M52.4994 42.3378C51.2051 42.3378 50.1558 41.2885 50.1558 39.9942V37.4943C50.1558 36.2 51.2051 35.1507 52.4994 35.1507C53.7937 35.1507 54.843 36.2 54.843 37.4943V39.9942C54.843 41.2885 53.7937 42.3378 52.4994 42.3378Z" fill="#2E2654"/>
<path d="M49.5965 52.292L42.0968 67.2913C41.235 69.0151 38.7654 69.0157 37.9033 67.2913L30.4037 52.292C29.6301 50.7415 30.7515 48.9 32.5005 48.9H47.4997C49.2457 48.9 50.3713 50.7393 49.5965 52.292Z" fill="#453D81"/>
<path d="M49.5964 52.292L42.0968 67.2913C41.6999 68.085 40.8875 68.5865 40 68.5865V48.9H47.4996C49.2456 48.9 50.3712 50.7393 49.5964 52.292Z" fill="#2E2654"/>
</svg>
