<svg width="80" height="80" viewBox="0 0 80 80" fill="none" xmlns="http://www.w3.org/2000/svg">
<g clip-path="url(#clip0)">
<path d="M18.7715 37.3438C24.8984 37.3438 29.8652 32.3769 29.8652 26.25C29.8652 20.1231 24.8984 15.1562 18.7715 15.1562C12.6446 15.1562 7.67773 20.1231 7.67773 26.25C7.67773 32.3769 12.6446 37.3438 18.7715 37.3438Z" fill="#C30047"/>
<path d="M21.0743 9.7514H12.0848C6.81445 9.7514 2.67773 15.4791 2.67773 20.7033V23.832C2.67773 25.455 3.99164 26.7755 5.6068 26.7755H21.0743V9.7514Z" fill="#FF405C"/>
<path d="M66.0714 41.6672V27.2891C66.0714 12.3745 54.1388 0 39.6216 0H23.0731C20.7195 0 18.731 2.08656 18.731 4.55625V38.0219C18.731 50.898 27.613 61.8062 39.4464 64.5094L66.0714 41.6672Z" fill="#8EE26B"/>
<path d="M42.4019 0.15564V61.9744L66.0722 41.6672V27.2891C66.072 13.426 55.7375 1.64111 42.4019 0.15564Z" fill="#00A763"/>
<path d="M56.228 75.3125H52.3218V64.7219C52.3218 63.4275 51.2724 62.3781 49.978 62.3781C48.6837 62.3781 47.6343 63.4275 47.6343 64.7219V75.3125H42.3218V62.5672C42.3218 61.2728 41.2724 60.2234 39.978 60.2234C38.6837 60.2234 37.6343 61.2728 37.6343 62.5672V75.3125H33.728C32.4337 75.3125 31.3843 76.3619 31.3843 77.6563C31.3843 78.9506 32.4337 80 33.728 80H56.228C57.5224 80 58.5718 78.9506 58.5718 77.6563C58.5718 76.3619 57.5226 75.3125 56.228 75.3125Z" fill="#784033"/>
<path d="M56.2279 75.3125H52.3217V64.7219C52.3217 63.4275 51.2723 62.3782 49.9779 62.3782C48.6836 62.3782 47.6342 63.4275 47.6342 64.7219V75.3125H42.4014V80H56.2279C57.5223 80 58.5717 78.9507 58.5717 77.6563C58.5717 76.3619 57.5225 75.3125 56.2279 75.3125Z" fill="#61362B"/>
<path d="M74.9782 39.3237H44.8432C31.1091 39.3237 26.1716 57.0895 38.179 63.7308C41.4577 65.5442 44.711 66.48 48.4276 66.9583C49.6508 67.1165 50.0899 67.0536 51.1379 67.0536C54.0082 67.0536 56.8318 66.6054 59.5311 65.7214C71.3582 61.842 77.3221 54.518 77.3221 41.6676C77.3219 40.3731 76.2727 39.3237 74.9782 39.3237Z" fill="#FFDD54"/>
<path d="M74.9779 39.3238C42.3976 39.3238 44.1132 39.2383 42.4014 39.5244V65.6042C45.2065 66.5663 48.5154 67.0663 49.9834 67.0663C53.2071 67.0663 56.0328 66.8669 59.5307 65.7213C71.3578 61.8419 77.3217 54.5178 77.3217 41.6675C77.3217 40.3732 76.2725 39.3238 74.9779 39.3238Z" fill="#FF9D21"/>
<path d="M36.2715 24.8438C40.3273 24.8438 43.6152 21.5558 43.6152 17.5C43.6152 13.4442 40.3273 10.1562 36.2715 10.1562C32.2156 10.1562 28.9277 13.4442 28.9277 17.5C28.9277 21.5558 32.2156 24.8438 36.2715 24.8438Z" fill="#FFDD54"/>
<path d="M43.6152 17.5C43.6152 13.4506 40.3209 10.1562 36.2715 10.1562V24.8438C40.3209 24.8438 43.6152 21.5494 43.6152 17.5Z" fill="#FF9D21"/>
<path d="M38.6027 17.2688C38.495 15.9777 37.2574 14.9302 35.8135 15.2016C34.5542 15.4631 33.7288 16.6533 33.973 17.9578C34.2355 19.2228 35.4311 20.0417 36.7292 19.7985C37.9697 19.54 38.7191 18.4135 38.6027 17.2688Z" fill="#453D81"/>
<path d="M38.5684 17.0422C38.3682 15.9847 37.4137 15.1567 36.2715 15.1567V19.8438C37.7816 19.8438 38.859 18.443 38.5684 17.0422Z" fill="#2E2654"/>
</g>
<defs>
<clipPath id="clip0">
<rect width="80" height="80" fill="white"/>
</clipPath>
</defs>
</svg>
