<svg width="80" height="80" viewBox="0 0 80 80" fill="none" xmlns="http://www.w3.org/2000/svg">
<path d="M13.4609 22.6503L5.34895 3.25837C4.54587 1.33871 6.46804 -0.599709 8.39427 0.183998C24.7864 6.85887 18.606 4.26921 29.4624 9.02832C30.9065 9.66144 33.1645 10.6493 33.5576 10.8307C35.9454 11.9326 35.2265 15.0816 32.9735 15.3472C26.1062 16.385 20.8778 19.038 17.4337 23.233C16.3151 24.5953 14.142 24.2788 13.4609 22.6503Z" fill="#453D81"/>
<path d="M62.5713 23.2328C59.127 19.038 53.8985 16.3849 47.0311 15.347C44.7356 15.0762 44.0927 11.9171 46.4466 10.8308C46.8353 10.6513 48.5911 9.88357 50.5225 9.03691C61.4392 4.25109 55.3064 6.82294 71.6105 0.183843C73.5385 -0.600333 75.4586 1.33964 74.6559 3.25822L66.5438 22.6502C65.8606 24.2835 63.6872 24.5923 62.5713 23.2328ZM46.6125 15.2538H46.613C46.6128 15.2539 46.6127 15.2538 46.6125 15.2538ZM46.6092 15.2527C46.6095 15.2527 46.6097 15.2528 46.61 15.2528C46.6097 15.2528 46.6094 15.2528 46.6092 15.2527Z" fill="#38336B"/>
<path d="M72.3104 38.409C71.7724 22.7481 63.1524 13.0356 47.7072 10.7098C43.6983 10.0409 37.4997 9.92794 32.3143 10.7066C16.849 13.0301 8.2332 22.7533 7.69552 38.409C-4.36657 49.2775 -1.77411 63.7416 12.1585 72.5925C27.6854 82.4592 52.312 82.4645 67.8474 72.5925C81.7195 63.7802 84.4018 49.3039 72.3104 38.409Z" fill="#5E54AC"/>
<path d="M67.8469 72.5925C60.3395 77.3632 50.4514 79.9906 40.0024 79.9906V10.1646C60.9045 10.1646 71.7078 20.8825 72.3099 38.409C84.3907 49.2942 81.7392 63.7672 67.8469 72.5925Z" fill="#453D81"/>
<path d="M79.3098 48.9454C57.6914 51.2157 58.9435 51.0917 58.7447 51.0917C57.5606 51.0917 56.5437 50.1966 56.4171 48.9922C56.2828 47.705 57.2169 46.5538 58.5041 46.4179L77.3462 44.4402C78.2116 45.9008 78.8677 47.4067 79.3098 48.9454Z" fill="#B1D5F1"/>
<path d="M76.8665 63.9494C76.1111 65.143 75.0662 66.4854 73.8438 67.7531L57.8244 60.9001C56.6357 60.3893 56.0843 59.0131 56.5935 57.8228C57.1043 56.634 58.4821 56.0826 59.6709 56.5919L76.8665 63.9494Z" fill="#B1D5F1"/>
<path d="M23.5879 48.9922C23.4573 50.2349 22.36 51.2063 21.0136 51.0792L0.695312 48.9454C1.13739 47.4067 1.79347 45.9008 2.65888 44.4402L21.501 46.4179C22.7881 46.5538 23.7223 47.705 23.5879 48.9922Z" fill="#E1F3FF"/>
<path d="M22.1807 60.9001L6.16134 67.7531C4.93587 66.4822 3.89176 65.1392 3.13867 63.9494L20.3343 56.5919C21.5231 56.0826 22.9008 56.634 23.4116 57.8228C23.9209 59.0131 23.3695 60.3893 22.1807 60.9001Z" fill="#E1F3FF"/>
<path d="M27.5058 40.2376C26.2117 40.2376 25.1626 39.1885 25.1626 37.8945V35.1144C25.1626 33.8203 26.2117 32.7712 27.5058 32.7712C28.7998 32.7712 29.8489 33.8203 29.8489 35.1144V37.8945C29.8489 39.1885 28.7998 40.2376 27.5058 40.2376Z" fill="#38336B"/>
<path d="M52.4994 40.2376C51.2054 40.2376 50.1562 39.1885 50.1562 37.8945V35.1144C50.1562 33.8203 51.2054 32.7712 52.4994 32.7712C53.7935 32.7712 54.8426 33.8203 54.8426 35.1144V37.8945C54.8426 39.1885 53.7935 40.2376 52.4994 40.2376Z" fill="#2E2654"/>
<path d="M51.0935 59.9957C51.0935 63.6994 48.0802 66.7127 44.3764 66.7127C42.7066 66.7127 41.1788 66.0988 40.0026 65.0866C38.8263 66.0988 37.2986 66.7127 35.6287 66.7127C31.9249 66.7127 28.9116 63.6994 28.9116 59.9957C28.9116 58.7023 29.9614 57.6525 31.2548 57.6525C32.5482 57.6525 33.5979 58.7023 33.5979 59.9957C33.5979 61.1157 34.5086 62.0264 35.6287 62.0264C36.7487 62.0264 37.6594 61.1157 37.6594 59.9957V54.8392L33.4683 51.3182C28.9657 47.5359 31.3419 40.1881 37.4673 40.157H42.5019C48.6557 40.157 51.0452 47.5312 46.5368 51.3182L42.3457 54.8392V59.9957C42.3457 61.1157 43.2564 62.0264 44.3764 62.0264C45.4965 62.0264 46.4072 61.1157 46.4072 59.9957C46.4072 58.7023 47.4569 57.6525 48.7503 57.6525C50.0438 57.6525 51.0935 58.7023 51.0935 59.9957Z" fill="#38336B"/>
<path d="M51.0934 59.9957C51.0934 63.6994 48.0801 66.7127 44.3763 66.7127C42.7064 66.7127 41.1787 66.0988 40.0024 65.0866V40.157H42.5018C48.6555 40.157 51.0451 47.5312 46.5367 51.3182L42.3456 54.8392V59.9957C42.3456 61.1157 43.2563 62.0264 44.3763 62.0264C45.4964 62.0264 46.4071 61.1157 46.4071 59.9957C46.4071 58.7023 47.4568 57.6525 48.7502 57.6525C50.0436 57.6525 51.0934 58.7023 51.0934 59.9957Z" fill="#2E2654"/>
</svg>
