<svg width="282" height="282" viewBox="0 0 282 282" fill="none" xmlns="http://www.w3.org/2000/svg">
<g clip-path="url(#clip0)">
<path d="M29.3128 278.294C8.81023 254.563 2.10462 219.304 13.765 190.246C19.1016 176.947 27.8977 164.457 28.4063 150.148C28.9865 133.852 18.7322 119.395 13.5659 103.918C2.8207 71.729 16.7996 33.1004 45.7061 15.1014C74.6132 -2.89836 115.662 1.46728 140.088 25.1379C154.407 39.0135 163.394 58.498 180.461 68.854C193.935 77.0292 210.353 78.2111 225.872 81.0754C241.391 83.939 257.935 89.7057 266.026 103.183C275.801 119.465 269.604 140.362 261.739 157.636C253.874 174.911 244.288 193.255 248.117 211.831C250.519 223.486 257.957 233.425 262.353 244.489C266.748 255.554 265.51 270.774 256.24 278.294H29.3128" fill="#CAEDED"/>
<path d="M190.936 57.7734C203.393 64.1567 218.023 66.2479 231.784 63.6129C239.712 62.095 247.966 58.5053 251.67 51.3713C255.479 44.0369 253.272 34.6559 248.009 28.2733C242.747 21.8907 234.971 18.0616 227.098 15.4526C211.827 10.3919 193.829 8.58691 178.064 12.5379C161.434 16.7059 161.353 29.8374 170.783 41.4178C176.277 48.1645 183.173 53.7957 190.936 57.7734" fill="#CAEDED"/>
<path d="M152.648 49.2822C152.614 49.2339 152.144 47.9193 151.538 46.2081C149.659 40.8942 148.224 35.4303 147.255 29.8792L146.501 25.5626C146.187 23.7627 143.744 23.4072 142.924 25.042L137.334 36.1918C135.837 39.1758 135.383 42.5708 136.043 45.8396L137.6 53.557L152.648 49.2822" fill="#6F4E33"/>
<path d="M138.551 46.7836C138.149 44.1552 138.43 41.3854 139.344 38.9862L142.568 30.5225L142.749 31.8825C143.503 37.5714 144.63 43.2213 146.095 48.6744C146.114 48.7415 146.439 49.9637 146.457 50.0279L139.421 52.0059L138.551 46.7836Z" fill="#FBC395"/>
<path d="M165.547 51.305C172.281 45.4034 178.686 39.1311 184.724 32.5272C186.477 30.6104 189.679 31.5342 190.135 34.0848L191.551 42.0077C192.334 46.3935 191.347 50.9091 188.803 54.5752L180.138 67.0599L165.547 51.305Z" fill="#6F4E33"/>
<path d="M170.701 53.3392C176.698 47.954 182.473 42.2312 187.899 36.2964C187.961 36.2287 188.004 36.2157 188.06 36.2157C188.127 36.2157 188.286 36.2351 188.319 36.4219L189.735 44.3448C190.39 48.0081 189.58 51.7117 187.455 54.7743L180.847 64.2951L170.701 53.3392" fill="#FBC395"/>
<path d="M171.836 106.987V88.1352C171.836 86.4218 169.785 85.5276 168.518 86.6886C165.349 89.5925 161.656 91.872 157.634 93.4072L134.892 102.088L134.898 102.116L129.586 121.741C128.132 127.111 123.859 131.271 118.43 132.603L97.8814 137.64L96.3042 162.265L184.982 160.863L174.91 127.696C172.871 120.98 171.836 114.002 171.836 106.987Z" fill="#6F4E33"/>
<path d="M182.525 117.642V70.5284C182.525 65.5369 180.207 60.8251 176.247 57.7604L165.889 49.748C162.209 46.9004 157.368 46.0076 152.906 47.3518L140.038 51.2285C136.934 52.1638 134.335 54.294 132.818 57.1445L127.23 67.6533L134.892 102.088L158.322 93.1447C162.146 91.6844 165.464 89.2839 168.577 86.6359C169.849 85.5557 171.836 86.4484 171.836 88.1351V106.986C171.836 114.002 172.872 120.98 174.91 127.696L184.982 160.863L203.078 160.578L182.525 117.642Z" fill="#AF7C48"/>
<path d="M127.231 67.6534L106.567 76.5447C102.561 78.2682 100.878 83.0167 102.911 86.8581L105.812 92.3386C107.903 96.2895 111.787 98.9923 116.236 99.5937L134.839 102.108C139.32 102.714 143.829 101.206 147.032 98.031L159.655 85.5168C161.136 84.0494 160.551 81.5457 158.572 80.8772C158.042 80.6983 157.47 80.6803 156.93 80.8252C153.123 81.8485 149.073 80.4546 146.717 77.3091L142.221 71.3051C140.942 69.5975 140.483 67.4161 140.966 65.3422L143.29 55.3526C143.49 54.4974 142.306 54.0532 141.888 54.8269L137.276 63.3649C136.149 65.4511 134.068 66.858 131.703 67.1335L127.231 67.6534" fill="#FBC395"/>
<path d="M141.215 88.57C141.085 88.2787 140.744 88.1489 140.45 88.278L133.516 91.3492C127.539 93.9964 120.644 94.088 114.598 91.6009L111.991 90.5278L111.043 87.8597L111.088 85.7224C111.094 85.4043 110.841 85.1418 110.522 85.1346C110.214 85.1346 109.937 85.3805 109.931 85.6986L109.881 88.0465L110.865 90.8112L110.59 91.0845C109.849 91.8222 108.655 91.8547 107.874 91.1588L106.203 89.6697C105.965 89.4577 105.599 89.4779 105.386 89.7144C105.173 89.9517 105.193 90.3151 105.43 90.5271L107.102 92.0155C107.699 92.5477 108.446 92.8109 109.192 92.8109C109.996 92.8109 110.799 92.5051 111.408 91.8987L111.668 91.6405L114.155 92.6638C117.218 93.9243 120.489 94.5531 123.76 94.5531C127.256 94.5531 130.749 93.8349 133.987 92.4013L140.922 89.3294C141.213 89.2003 141.345 88.8599 141.215 88.57" fill="#3D2443"/>
<path d="M110.461 87.9527C107.624 87.0896 105.26 84.7741 104.255 81.9992C103.892 80.999 104.535 79.9008 105.59 79.7227C109.88 78.9951 114.347 79.3224 118.485 80.6608C119.715 81.0589 120.083 82.6165 119.173 83.5287C116.33 86.3749 112.668 87.6859 110.461 87.9527Z" fill="#3D2443"/>
<path d="M158.014 67.0599C158.014 68.8771 156.532 70.351 154.704 70.351C152.876 70.351 151.394 68.8771 151.394 67.0599C151.394 65.2419 152.876 63.7687 154.704 63.7687C156.532 63.7687 158.014 65.2419 158.014 67.0599Z" fill="#3D2443"/>
<path d="M161.273 59.8559C161.867 59.9886 162.535 60.1126 163.06 59.835C163.846 59.4182 163.796 58.3899 163.445 57.6443C162.793 56.2575 161.425 55.1441 159.801 54.6783C158.177 54.2125 156.325 54.4021 154.866 55.1838C153.442 55.9468 152.284 57.7719 154.416 58.3243C156.672 58.9091 158.993 59.3468 161.273 59.8559Z" fill="#6F4E33"/>
<path d="M136.434 62.2745C136.434 63.887 135.602 65.1943 134.576 65.1943C133.55 65.1943 132.719 63.887 132.719 62.2745C132.719 60.6621 133.55 59.3547 134.576 59.3547C135.602 59.3547 136.434 60.6621 136.434 62.2745Z" fill="#3D2443"/>
<path d="M140.297 55.2163C140.649 55.1774 141.034 55.1132 141.191 54.7634C141.425 54.2392 140.998 53.4308 140.531 52.9217C139.66 51.9742 138.536 51.4204 137.534 51.4449C136.533 51.4701 135.673 52.073 135.241 53.053C134.821 54.0092 134.948 55.747 136.239 55.6677C137.606 55.5834 138.948 55.3663 140.297 55.2163Z" fill="#6F4E33"/>
<path d="M37.8643 163.19L256.24 159.737L245.438 222.276L244.28 278.294H42.1085L48.0888 230.526L47.091 228.77C46.5464 227.811 46.5696 226.634 47.1512 225.697L49.2461 222.324L46.7581 220.786C45.2614 219.86 44.9634 217.817 46.1338 216.507L48.5224 213.835L37.8643 163.19" fill="#F8A14B"/>
<path d="M245.437 222.276L127.23 258.15L148.356 257.26C161.451 256.707 174.326 253.705 186.304 248.411L245.437 222.276Z" fill="#F2862A"/>
<path d="M72.6855 247.791L115.801 252.683L98.1946 256.174C91.8163 257.439 85.1935 256.127 79.7905 252.525L72.6855 247.791" fill="#F2862A"/>
<path d="M51.0791 229.854L78.6657 227.553L67.2338 230.97C64.4174 231.811 61.4356 231.947 58.5532 231.365L51.0791 229.854Z" fill="#F2862A"/>
<path d="M53.5869 213.259L71.6995 208.103C74.2064 207.389 76.8089 207.061 79.4158 207.131L100.272 207.696L78.8951 212.609C77.0119 213.041 75.0852 213.259 73.152 213.259H53.5869" fill="#F2862A"/>
<path d="M47.5487 209.2L47.4399 208.685L47.5487 209.2Z" fill="#E6F7F8"/>
<path d="M47.5483 209.2L47.4395 208.685L43.8247 191.506L67.1881 183.549L65.7414 185.682L67.6623 186.276L66.8987 188.609L68.146 189.058L67.0916 191.774L68.6797 192.126L67.6224 194.843L69.2105 195.18L67.9596 197.672L69.6934 197.953L68.5869 200.359L70.1401 200.524L69.1655 202.469L70.5158 202.684L47.5483 209.2" fill="#FCD0A7"/>
<path d="M219.402 214.821L87.3948 242.043L80.6641 195.342L213.859 176.358L219.402 214.821Z" fill="white"/>
<path d="M108.713 216.891L104.528 217.488L104.138 219.958L100.875 220.423L103.696 207.095L106.567 206.686L113.074 218.684L109.794 219.152L108.713 216.891ZM104.919 215.026L107.642 214.638L105.643 210.44L104.919 215.026ZM114.005 218.552L112.18 205.886L116.26 205.304C117.38 205.145 118.423 205.256 119.39 205.639C120.356 206.017 121.155 206.634 121.788 207.49C122.426 208.341 122.83 209.339 123.001 210.487L123.085 211.07C123.252 212.23 123.156 213.306 122.796 214.298C122.441 215.284 121.854 216.101 121.036 216.751C120.223 217.393 119.268 217.796 118.173 217.958L114.005 218.552ZM115.573 207.808L116.721 215.768L117.782 215.616C118.658 215.492 119.286 215.085 119.667 214.398C120.046 213.705 120.147 212.743 119.97 211.514L119.891 210.966C119.715 209.742 119.347 208.853 118.788 208.3C118.228 207.746 117.499 207.533 116.6 207.662L115.573 207.808ZM135.379 209.309C135.557 210.544 135.485 211.67 135.164 212.686C134.843 213.703 134.296 214.529 133.523 215.166C132.756 215.796 131.833 216.188 130.754 216.342C129.675 216.496 128.682 216.386 127.776 216.012C126.869 215.632 126.114 215.015 125.511 214.16C124.914 213.304 124.518 212.28 124.322 211.089L124.219 210.375C124.041 209.134 124.109 208.009 124.425 206.999C124.747 205.983 125.294 205.156 126.066 204.519C126.844 203.881 127.776 203.485 128.861 203.331C129.934 203.178 130.928 203.296 131.842 203.687C132.757 204.077 133.514 204.712 134.115 205.591C134.72 206.464 135.113 207.509 135.295 208.726L135.379 209.309ZM132.196 209.221C132.015 207.962 131.665 207.038 131.148 206.449C130.636 205.853 129.989 205.611 129.205 205.723C127.674 205.941 127.03 207.205 127.274 209.514L127.4 210.446C127.579 211.687 127.922 212.612 128.43 213.22C128.938 213.828 129.598 214.074 130.41 213.959C131.182 213.849 131.729 213.436 132.052 212.721C132.375 212.006 132.451 211.034 132.28 209.804L132.196 209.221ZM140.263 210.423L140.883 214.721L137.829 215.156L136.003 202.49L141.059 201.77C142.027 201.632 142.909 201.689 143.703 201.943C144.502 202.19 145.153 202.615 145.654 203.219C146.16 203.815 146.474 204.531 146.594 205.366C146.772 206.602 146.471 207.654 145.69 208.522C144.915 209.385 143.756 209.926 142.213 210.146L140.263 210.423ZM139.924 208.066L141.925 207.781C142.517 207.696 142.945 207.484 143.21 207.145C143.48 206.804 143.577 206.365 143.499 205.825C143.414 205.234 143.186 204.784 142.816 204.475C142.446 204.167 141.985 204.049 141.433 204.122L139.397 204.412L139.924 208.066ZM157.896 201.776L154.093 202.318L155.579 212.626L152.525 213.062L151.039 202.753L147.306 203.285L146.967 200.928L157.556 199.418L157.896 201.776ZM173.227 197.185L174.421 205.475C174.557 206.415 174.474 207.258 174.173 208.005C173.872 208.746 173.373 209.35 172.676 209.816C171.98 210.283 171.121 210.589 170.1 210.734C168.557 210.954 167.284 210.727 166.281 210.053C165.279 209.379 164.668 208.348 164.45 206.958L163.246 198.607L166.318 198.169L167.53 206.582C167.765 207.963 168.509 208.564 169.762 208.385C170.394 208.295 170.847 208.053 171.122 207.659C171.397 207.264 171.478 206.676 171.365 205.893L170.173 197.62L173.227 197.185ZM183.016 205.28C182.951 204.833 182.742 204.508 182.387 204.304C182.038 204.1 181.446 203.92 180.613 203.767C179.78 203.613 179.093 203.448 178.553 203.27C176.795 202.698 175.814 201.708 175.611 200.298C175.51 199.597 175.624 198.95 175.953 198.359C176.287 197.761 176.807 197.26 177.513 196.858C178.218 196.45 179.037 196.179 179.971 196.046C180.882 195.916 181.72 195.962 182.486 196.185C183.258 196.406 183.888 196.79 184.375 197.336C184.861 197.876 185.16 198.532 185.271 199.303L182.226 199.737C182.151 199.221 181.934 198.844 181.574 198.605C181.22 198.366 180.773 198.284 180.234 198.361C179.688 198.439 179.274 198.622 178.99 198.911C178.711 199.194 178.598 199.52 178.652 199.892C178.698 200.216 178.915 200.487 179.302 200.705C179.687 200.916 180.339 201.101 181.255 201.261C182.171 201.414 182.934 201.613 183.544 201.858C185.026 202.451 185.868 203.441 186.067 204.827C186.227 205.935 185.935 206.864 185.19 207.616C184.446 208.367 183.346 208.846 181.89 209.054C180.863 209.2 179.906 209.15 179.018 208.904C178.135 208.651 177.436 208.236 176.921 207.658C176.41 207.074 176.095 206.364 175.974 205.529L179.037 205.092C179.135 205.771 179.381 206.248 179.776 206.523C180.176 206.791 180.77 206.87 181.559 206.757C182.064 206.685 182.446 206.521 182.705 206.265C182.969 206.003 183.073 205.674 183.016 205.28Z" fill="#3D2443"/>
<path d="M37.8646 163.19L14.5542 213.259L46.034 202.008L37.8646 163.19Z" fill="#F2862A"/>
<path d="M256.24 159.737L274.374 210.191L249.077 201.202L256.24 159.737Z" fill="#F2862A"/>
<path d="M61.7387 101.801L59.6162 111.108L60.6778 111.297L64.5841 101.034L61.7387 101.801" fill="#AE2B55"/>
<path d="M54.8599 102.424L55.2768 112.356H56.2891L57.3022 102.712L54.8599 102.424Z" fill="#AE2B55"/>
<path d="M72.8214 80.7856C73.0962 80.0645 73.3949 79.3304 73.9214 78.765C74.4486 78.1989 75.2593 77.8304 76.0076 78.0302C76.8502 78.2559 77.3796 79.1407 77.4528 80.006C77.5261 80.8707 77.2382 81.7216 76.9344 82.5357C75.4805 86.4377 73.5871 90.1781 71.3044 93.6654C71.0056 94.1218 70.1398 95.9124 69.5647 95.9636C68.6025 96.0494 69.2014 94.3317 69.2863 93.8233C69.6329 91.7407 70.0774 89.6733 70.6176 87.6318C71.2304 85.3134 71.9657 83.0268 72.8214 80.7856Z" fill="#FCD572"/>
<path d="M77.6848 81.3833C78.1873 80.7321 78.7181 80.0752 79.4244 79.6692C80.1314 79.2633 81.0603 79.1565 81.7492 79.6159C82.5251 80.1329 82.7789 81.2261 82.581 82.1434C82.383 83.0606 81.8261 83.8416 81.2655 84.5793C78.5803 88.1164 75.5057 91.3383 72.1186 94.1672C71.6755 94.5379 70.2441 96.094 69.6509 95.952C68.6575 95.7162 69.7974 94.1456 70.0425 93.6488C71.0447 91.6159 72.1396 89.6329 73.3231 87.7068C74.666 85.5211 76.1221 83.4089 77.6848 81.3833" fill="#FCCD50"/>
<path d="M80.6054 84.5837C81.2145 84.1063 81.8505 83.6296 82.5952 83.414C83.3399 83.1991 84.2253 83.2979 84.7634 83.8525C85.3696 84.4769 85.3653 85.5074 84.9802 86.2862C84.5952 87.065 83.9077 87.647 83.2261 88.1892C79.9593 90.7903 76.401 93.0279 72.639 94.8495C72.1459 95.0882 70.4773 96.1799 69.9574 95.9297C69.0887 95.5107 70.4904 94.3447 70.8269 93.9517C72.2025 92.3436 73.6535 90.7997 75.1727 89.325C76.8985 87.6513 78.7121 86.067 80.6054 84.5837" fill="#F89C46"/>
<path d="M58.5376 103.619C52.9736 104.018 47.2921 101.182 44.29 96.5059C41.2887 91.8295 41.0936 85.5103 43.8006 80.6594C45.3197 77.9372 47.7845 75.6354 50.804 74.8112C53.8228 73.9869 57.3767 74.866 59.2867 77.3336C62.5129 81.5024 60.2192 88.1994 63.5535 92.283C64.5426 93.4952 65.9921 94.2935 67.5251 94.5841C68.5918 94.7867 71.3799 94.0462 70.9593 95.8057C70.649 97.108 68.8999 98.6533 67.9456 99.5187C66.7354 100.617 65.3569 101.531 63.8711 102.22C62.196 102.997 60.3831 103.486 58.5376 103.619" fill="#FCCD50"/>
<path d="M67.5276 94.5841C66.1839 94.3295 64.9047 93.6842 63.9432 92.7128C61.4893 93.8601 58.778 94.4644 56.0667 94.4283C52.3075 94.3779 48.5745 93.1116 45.568 90.8682C44.1301 89.7952 42.8495 88.4849 41.9525 86.9381C41.7016 90.2704 42.4833 93.6863 44.2932 96.5059C47.2946 101.182 52.9761 104.018 58.5401 103.619C60.3856 103.486 62.1985 102.997 63.8736 102.22C65.3594 101.531 66.7379 100.617 67.9481 99.5187C68.9024 98.6533 70.6515 97.108 70.9618 95.8057C71.3824 94.0461 68.5942 94.7867 67.5276 94.5841" fill="#F89C46"/>
<path d="M58.3528 81.785L63.2084 84.1633L57.5987 84.456C56.6995 84.5029 56.0693 83.5878 56.4384 82.7715L56.6009 82.4124C56.9011 81.7475 57.6951 81.4634 58.3528 81.785" fill="#AE2B55"/>
<path d="M55.7822 79.2236C55.7822 79.9981 55.1506 80.6262 54.3718 80.6262C53.5923 80.6262 52.9614 79.9981 52.9614 79.2236C52.9614 78.4484 53.5923 77.8211 54.3718 77.8211C55.1506 77.8211 55.7822 78.4484 55.7822 79.2236Z" fill="#3D2443"/>
<path d="M29.3137 111.108C34.199 113.407 40.3729 120.026 40.3729 120.026L28.8942 140.744C28.7016 132.399 23.2036 125.926 23.2036 125.926L29.3137 111.108" fill="#534142"/>
<path d="M29.3137 111.108L23.2036 125.926C23.2036 125.926 24.7162 127.709 26.1829 130.607C29.0399 126.535 31.69 120.42 29.3137 111.108Z" fill="#3D2443"/>
<path d="M29.3138 111.108C29.1492 118.648 26.4067 126.11 21.6431 131.979C20.7483 133.082 19.5637 134.222 18.1446 134.098C16.4536 133.951 15.4812 132.121 15.0699 130.483C14.2161 127.085 14.4274 123.431 15.6672 120.152L29.3138 111.108" fill="#534142"/>
<path d="M87.6875 97.5544C84.0966 101.572 81.022 110.065 81.022 110.065L99.7394 124.662C96.6321 116.908 99.1433 108.811 99.1433 108.811L87.6875 97.5544" fill="#534142"/>
<path d="M87.6885 97.5536L99.1443 108.811C99.1443 108.811 98.454 111.041 98.2459 114.278C94.0132 111.643 89.1678 107.048 87.6885 97.5536" fill="#3D2443"/>
<path d="M87.6885 97.5543C90.808 104.428 96.2691 110.227 102.963 113.773C104.22 114.439 105.76 115.028 107.016 114.362C108.515 113.568 108.689 111.505 108.423 109.838C107.871 106.379 106.238 103.098 103.807 100.564L87.6885 97.5543" fill="#534142"/>
<path d="M27.1632 140.667L32.0395 127.261C34.6064 120.201 40.6302 114.94 48.0006 113.319L70.1776 108.441C76.9736 106.946 84.0764 108.839 89.2097 113.513L103.213 126.262C106.209 128.99 107.166 133.292 105.606 137.022L98.8563 153.161C96.6431 158.452 91.7832 162.186 86.0764 162.982L54.2629 167.414C48.9918 168.149 43.6932 166.276 40.0704 162.398L29.2384 150.806C26.6913 148.079 25.8902 144.166 27.1632 140.667" fill="#C6B5AA"/>
<path d="M54.4349 124.338C55.6604 124.267 56.97 124.293 57.9976 124.96C59.4435 125.899 59.8858 127.812 59.8764 129.529C59.8554 133.608 57.8895 137.636 54.68 140.177C53.4183 141.176 51.9499 141.962 50.3582 142.218C48.7658 142.475 47.0428 142.157 45.7818 141.157C44.6194 140.236 43.9486 138.849 43.3163 137.511C41.9567 134.635 41.502 131.411 43.428 128.637C44.5773 126.982 46.3873 125.875 48.3575 125.479C50.4191 125.065 52.2892 124.463 54.4349 124.338" fill="#856D6F"/>
<path d="M54.695 133.307C54.695 135.334 53.0431 136.976 51.0054 136.976C48.9685 136.976 47.3159 135.334 47.3159 133.307C47.3159 131.281 48.9685 129.638 51.0054 129.638C53.0431 129.638 54.695 131.281 54.695 133.307Z" fill="#3D2443"/>
<path d="M52.0069 122.776C53.0185 122.566 54.1562 122.268 54.6464 121.363C55.1055 120.515 54.7733 119.401 54.0714 118.739C53.3687 118.075 52.3825 117.793 51.4203 117.691C49.284 117.464 47.0716 118.038 45.3204 119.274C43.96 120.234 42.3669 123.266 44.8592 123.993C45.7243 124.246 46.8461 123.843 47.6872 123.669C49.1267 123.371 50.5668 123.073 52.0069 122.776" fill="#856D6F"/>
<path d="M73.8913 120.822C72.7413 121.248 71.5535 121.797 70.8834 122.82C69.9415 124.259 70.3128 126.186 71.0176 127.753C72.6912 131.478 76.1241 134.376 80.092 135.414C81.6511 135.821 83.3139 135.951 84.8751 135.547C86.4356 135.143 87.883 134.161 88.6313 132.74C89.3217 131.431 89.3724 129.893 89.4087 128.415C89.4863 125.239 88.5951 122.106 85.7068 120.34C83.9839 119.287 81.8781 119 79.9151 119.428C77.8608 119.876 75.9058 120.075 73.8913 120.822" fill="#856D6F"/>
<path d="M77.2922 129.133C78.1138 130.987 80.2914 131.827 82.1558 131.01C84.0208 130.193 84.8656 128.027 84.044 126.173C83.2217 124.319 81.0441 123.478 79.1798 124.296C77.3147 125.113 76.4699 127.279 77.2922 129.133Z" fill="#3D2443"/>
<path d="M75.4782 118.418C74.4674 118.633 73.3057 118.816 72.4899 118.185C71.7256 117.593 71.5777 116.44 71.9519 115.552C72.3253 114.664 73.1128 114.01 73.9525 113.53C75.8147 112.466 78.0721 112.104 80.1765 112.533C81.8109 112.865 84.4983 115 82.5122 116.665C81.824 117.243 80.6333 117.324 79.7936 117.503C78.3549 117.808 76.9169 118.113 75.4782 118.418" fill="#856D6F"/>
<path d="M59.221 136.717L56.8548 137.579C55.0325 138.243 53.4285 139.391 52.2154 140.898C50.6708 142.817 48.5019 144.14 46.0814 144.641L40.9735 145.697C38.6327 146.181 36.8293 148.041 36.4283 150.385C36.1187 152.192 36.6901 154.039 37.9678 155.36L41.2302 158.734C45.2098 162.85 50.9558 164.778 56.6293 163.902L83.7047 159.721C89.64 158.804 94.6964 154.943 97.1191 149.477L99.1546 144.884C100.24 142.435 99.7383 139.578 97.8827 137.64C96.2033 135.887 93.6972 135.184 91.3441 135.806L89.347 136.334C86.8039 137.006 84.0948 136.618 81.8462 135.259C80.3342 134.345 78.5975 133.862 76.8282 133.862H72.6854L59.221 136.717" fill="#E1D5B5"/>
<path d="M53.0283 154.496C54.7128 154.757 56.4423 154.598 58.0593 154.025C56.7773 151.954 55.7208 149.741 54.9579 147.433C53.8477 149.627 53.1958 152.045 53.0283 154.496Z" fill="white"/>
<path d="M88.535 147.14C87.0913 145.205 85.2733 143.546 83.1973 142.303C83.7955 144.682 84.0892 147.137 84.1102 149.592C85.5743 149.201 86.9542 148.492 88.1377 147.48L88.535 147.14Z" fill="white"/>
<path d="M94.6322 141.927C94.4241 141.687 94.0587 141.66 93.8157 141.866L87.7593 147.044C85.354 149.1 82.0851 149.854 79.0148 149.061L73.6386 147.673C72.3791 147.348 71.0869 147.268 69.8186 147.396L69.0608 142.22C69.0144 141.905 68.7164 141.689 68.4046 141.733C68.0884 141.779 67.8694 142.071 67.9151 142.385L68.675 147.574C67.327 147.858 66.0275 148.384 64.8608 149.165L60.0219 152.406C56.9763 154.445 52.9532 154.584 49.7742 152.758L45.7721 150.461C45.4944 150.302 45.142 150.396 44.9817 150.672C44.8222 150.947 44.9172 151.299 45.1934 151.458L49.1955 153.755C50.8626 154.712 52.7364 155.187 54.608 155.187C56.7334 155.187 58.8559 154.574 60.6687 153.361L65.5069 150.121C67.8063 148.58 70.6648 148.095 73.3478 148.787L78.7241 150.176C82.162 151.064 85.821 150.219 88.5142 147.916L94.5706 142.739C94.8128 142.532 94.8404 142.169 94.6322 141.927" fill="#3D2443"/>
<path d="M58.6104 137.115L59.221 136.717C63.495 133.927 68.6196 132.722 73.697 133.309L74.7158 133.427C76.4127 133.623 77.2828 135.551 76.3024 136.942L73.7463 140.57C71.6601 143.532 67.7878 144.66 64.4246 143.286L58.9904 141.066C57.3124 140.38 57.0934 138.105 58.6104 137.115" fill="#3D2443"/>
<path d="M106.111 164.268C105.698 161.374 104.592 158.383 102.873 156.011C101.769 157.311 100.551 158.224 99.4459 159.523C98.9905 157.839 98.6715 155.936 98.8027 154.199C96.8173 154.73 94.9892 155.778 93.6977 157.368C93.4939 156.001 93.5795 154.594 93.9377 153.258C91.3026 155.691 89.3918 158.907 88.6094 162.401C88.0387 164.949 88.0583 167.685 89.0568 170.101C90.3628 173.256 93.3772 175.653 96.7614 176.224C100.146 176.794 103.786 175.519 106.064 172.966C108.303 170.459 109.213 165.531 108.324 162.254C107.719 163.034 106.965 163.704 106.111 164.268" fill="#FEEFCC"/>
<path d="M123.088 161.842C121.752 156.785 118.048 152.316 113.259 150.158C108.471 148.001 102.707 148.109 98.0038 150.445C96.5195 151.182 95.1504 152.137 93.9358 153.258C93.5776 154.594 93.492 156.001 93.6958 157.368C94.9873 155.778 96.8153 154.73 98.8008 154.199C98.6695 155.936 98.9886 157.84 99.444 159.523C100.549 158.224 101.767 157.311 102.871 156.011C104.59 158.383 105.696 161.374 106.109 164.268C106.963 163.704 107.717 163.034 108.322 162.254L108.277 162.076L108.46 162.073L123.088 161.842" fill="#93A2B0"/>
<path d="M108.278 162.076C107.169 158.057 109.436 155.42 110.835 154.557C110.568 155.192 110.367 156.007 110.1 156.642C110.304 156.616 110.51 156.603 110.716 156.603C112.321 156.603 113.972 157.365 115.19 158.393C115.46 158.62 115.708 158.869 115.934 159.137C115.428 159.932 114.948 160.745 114.496 161.574L114.274 161.981L108.278 162.076" fill="#797A93"/>
<path d="M144.931 151.706L144.16 150.96H122.746L122.114 151.572C119.08 154.504 116.512 157.876 114.495 161.574L114.273 161.982L133.453 161.678L152.367 161.379C150.379 157.81 147.874 154.55 144.931 151.706" fill="#93A2B0"/>
<path d="M133.454 154.989C128.845 154.989 124.884 157.802 123.09 161.842L143.665 161.516C141.806 157.653 137.938 154.989 133.454 154.989Z" fill="#D7D1B8"/>
<path d="M122.086 151.598C122.095 151.59 122.104 151.582 122.113 151.573C122.104 151.582 122.095 151.59 122.086 151.598Z" fill="#603F38"/>
<path d="M139.438 156.736C137.7 155.629 135.65 154.989 133.452 154.989C131.254 154.989 129.204 155.629 127.466 156.736C124.909 156.063 122.515 154.899 120.417 153.321C120.957 152.733 121.511 152.156 122.086 151.598C122.094 151.59 122.104 151.581 122.113 151.572L122.746 150.96H133.452H144.16L144.931 151.706C145.469 152.226 145.989 152.766 146.498 153.314C144.397 154.895 141.999 156.062 139.438 156.736" fill="#797A93"/>
<path d="M134.252 157.407H132.651C130.877 157.407 129.136 157.176 127.464 156.736C129.203 155.629 131.253 154.989 133.451 154.989C135.649 154.989 137.699 155.629 139.436 156.736C137.766 157.176 136.025 157.407 134.252 157.407Z" fill="#A89A97"/>
<path d="M107.183 102.921C106.247 111.192 106.761 119.562 108.703 127.658L109.241 129.905L123.088 116.093L120.71 112.183C118.056 107.822 114.371 104.171 109.975 101.548C108.82 100.858 107.334 101.589 107.183 102.921" fill="#73769E"/>
<path d="M111.934 110.96C114.213 112.874 116.231 115.272 117.862 118.024L119.088 120.083L120.22 118.953L116.994 113.673C114.882 110.2 112.018 107.198 108.651 104.91C108.13 110.79 108.366 116.675 109.354 122.477C109.45 123.043 110.624 127.852 110.734 128.416L112.353 126.801C111.286 121.819 110.667 116.74 110.51 111.622C110.487 110.882 111.365 110.482 111.934 110.96" fill="#F794AC"/>
<path d="M117.863 118.024C116.231 115.272 114.214 112.874 111.935 110.96C111.366 110.482 110.488 110.882 110.511 111.622C110.668 116.74 111.287 121.819 112.354 126.801L119.088 120.083L117.863 118.024" fill="#F46A9A"/>
<path d="M159.569 102.921C160.504 111.192 159.99 119.562 158.049 127.658L157.51 129.905L143.664 116.093L146.042 112.183C148.696 107.822 152.38 104.171 156.776 101.548C157.932 100.858 159.418 101.589 159.569 102.921" fill="#73769E"/>
<path d="M154.818 110.96C152.538 112.874 150.521 115.272 148.889 118.024L147.664 120.083L146.531 118.953L149.757 113.673C151.87 110.2 154.733 107.198 158.1 104.91C158.622 110.79 158.385 116.675 157.397 122.477C157.301 123.043 156.128 127.852 156.017 128.416L154.398 126.801C155.464 121.819 156.084 116.74 156.242 111.622C156.264 110.882 155.386 110.482 154.818 110.96" fill="#F794AC"/>
<path d="M148.889 118.024C150.522 115.272 152.538 112.874 154.818 110.96C155.387 110.482 156.265 110.882 156.242 111.622C156.085 116.74 155.465 121.819 154.399 126.801L147.665 120.083L148.889 118.024" fill="#F46A9A"/>
<path d="M136.522 113.514H130.381C123.233 113.514 116.53 116.965 112.403 122.769L108.956 127.616C106.295 131.359 106.295 136.364 108.956 140.107L112.403 144.955C116.53 150.758 123.233 154.209 130.381 154.209H136.522C143.671 154.209 150.373 150.758 154.5 144.955L157.947 140.107C160.609 136.364 160.609 131.359 157.947 127.616L154.5 122.769C150.373 116.965 143.671 113.514 136.522 113.514Z" fill="#93A2B0"/>
<path d="M127.232 130.445C127.232 131.749 126.169 132.807 124.857 132.807C123.545 132.807 122.482 131.749 122.482 130.445C122.482 129.141 123.545 128.083 124.857 128.083C126.169 128.083 127.232 129.141 127.232 130.445Z" fill="#3D2443"/>
<path d="M143.282 140.841C143.056 140.616 142.689 140.616 142.463 140.841L140.384 142.909C139.673 143.616 138.726 144.006 137.721 144.006C135.644 144.006 133.954 142.325 133.954 140.26V140.024C133.954 139.706 133.695 139.449 133.376 139.449C133.057 139.449 132.797 139.706 132.797 140.024V140.26C132.797 142.325 131.107 144.006 129.031 144.006C128.025 144.006 127.078 143.616 126.367 142.909L124.288 140.841C124.062 140.616 123.696 140.616 123.469 140.841C123.244 141.066 123.244 141.43 123.469 141.655L125.549 143.722C126.479 144.647 127.715 145.157 129.031 145.157C130.911 145.157 132.546 144.103 133.376 142.558C134.205 144.103 135.84 145.157 137.721 145.157C139.036 145.157 140.272 144.647 141.202 143.722L143.282 141.655C143.507 141.43 143.507 141.066 143.282 140.841Z" fill="#73769E"/>
<path d="M126.451 125.011C126.96 125.141 127.5 125.353 127.991 125.167C128.552 124.956 128.817 124.264 128.69 123.682C128.561 123.1 128.127 122.629 127.639 122.283C126.015 121.132 123.616 121.217 122.077 122.479C121.709 122.781 121.382 123.152 121.215 123.597C120.824 124.639 121.675 125.85 122.816 125.477C124.065 125.069 125.105 124.67 126.451 125.011" fill="#73769E"/>
<path d="M139.521 130.445C139.521 131.749 140.584 132.807 141.896 132.807C143.207 132.807 144.271 131.749 144.271 130.445C144.271 129.141 143.207 128.083 141.896 128.083C140.584 128.083 139.521 129.141 139.521 130.445Z" fill="#3D2443"/>
<path d="M140.302 125.011C139.793 125.141 139.252 125.353 138.762 125.167C138.202 124.956 137.936 124.264 138.063 123.682C138.192 123.1 138.626 122.629 139.114 122.283C140.738 121.132 143.137 121.217 144.676 122.479C145.044 122.781 145.37 123.152 145.538 123.597C145.929 124.639 145.078 125.85 143.937 125.477C142.687 125.069 141.648 124.67 140.302 125.011" fill="#73769E"/>
<path d="M123.089 138.155C119.413 137.568 113.454 137.568 109.778 138.155C113.454 138.742 119.413 138.742 123.089 138.155Z" fill="#C6D7D9"/>
<path d="M122.815 136.677C119.458 135.076 113.744 133.393 110.052 132.918C113.409 134.518 119.123 136.202 122.815 136.677" fill="#C6D7D9"/>
<path d="M122.815 139.632C119.123 140.107 113.409 141.79 110.052 143.391C113.744 142.916 119.458 141.232 122.815 139.632" fill="#C6D7D9"/>
<path d="M143.664 138.155C147.339 137.568 153.299 137.568 156.974 138.155C153.299 138.742 147.339 138.742 143.664 138.155Z" fill="#C6D7D9"/>
<path d="M143.939 136.677C147.296 135.076 153.01 133.393 156.702 132.918C153.345 134.518 147.631 136.202 143.939 136.677" fill="#C6D7D9"/>
<path d="M143.939 139.632C147.631 140.107 153.345 141.79 156.702 143.391C153.01 142.916 147.296 141.232 143.939 139.632" fill="#C6D7D9"/>
<path d="M136.546 135.852H130.204C129.068 135.852 128.476 137.006 129.247 137.718L130.642 139.005C131.379 139.685 132.378 140.024 133.375 140.024C134.373 140.024 135.372 139.685 136.108 139.005L137.504 137.718C138.275 137.006 137.683 135.852 136.546 135.852Z" fill="#3D2443"/>
<path d="M124.673 116.419C124.983 116.951 125.649 117.192 126.268 117.182C126.887 117.172 127.48 116.956 128.071 116.773C131.519 115.703 135.289 115.682 138.748 116.714C139.181 116.844 139.617 116.991 140.07 117.008C140.522 117.025 141.005 116.891 141.296 116.546C141.715 116.052 141.6 115.266 141.201 114.757C140.812 114.262 140.221 113.976 139.632 113.743C138.61 113.598 137.573 113.514 136.524 113.514H130.383C129.501 113.514 128.628 113.568 127.764 113.67C127.29 113.846 126.824 114.042 126.368 114.262C125.574 114.645 123.984 115.237 124.673 116.419" fill="#73769E"/>
<path d="M128.244 119.744C128.421 120.048 128.803 120.187 129.157 120.181C129.511 120.175 129.851 120.052 130.19 119.946C132.164 119.333 134.323 119.322 136.305 119.913C136.553 119.987 136.802 120.071 137.061 120.081C137.32 120.091 137.597 120.014 137.764 119.817C138.004 119.534 137.938 119.084 137.71 118.792C137.48 118.5 137.128 118.333 136.781 118.198C134.362 117.253 131.55 117.379 129.215 118.508C128.76 118.728 127.849 119.067 128.244 119.744" fill="#73769E"/>
<path d="M124.29 162.95C124.29 165.545 121.645 167.65 118.382 167.65C115.119 167.65 112.474 165.545 112.474 162.95C112.474 160.354 115.119 158.25 118.382 158.25C121.645 158.25 124.29 160.354 124.29 162.95Z" fill="#FEEFCC"/>
<path d="M142.617 162.95C142.617 165.545 145.261 167.65 148.524 167.65C151.788 167.65 154.433 165.545 154.433 162.95C154.433 160.354 151.788 158.25 148.524 158.25C145.261 158.25 142.617 160.354 142.617 162.95Z" fill="#FEEFCC"/>
<path d="M215.517 92.0904C215.517 90.5033 217.196 89.4706 218.624 90.1802L229.423 95.5453C235.863 98.7456 240.385 104.806 241.598 111.863L245.192 132.781C245.474 134.431 243.732 135.686 242.245 134.904L229.978 128.455L215.517 92.0904Z" fill="#3D2443"/>
<path d="M186.794 135.142L188.058 141.133C188.923 145.232 187.157 149.436 183.617 151.706L179.498 154.346C177.297 155.757 175.277 157.43 173.484 159.329L171.838 161.071L242.539 159.953L233.66 150.416C231.501 148.097 229.956 145.281 229.163 142.221L226.726 132.807L186.794 135.142" fill="#BE3955"/>
<path d="M228.913 141.26L226.725 132.807L228.913 141.26Z" fill="#828EA1"/>
<path d="M187.701 139.445L186.793 135.142L187.701 139.445Z" fill="#774B48"/>
<path d="M205.235 150.183C202.568 150.183 199.948 149.283 197.829 147.581L187.701 139.445L186.793 135.142L226.726 132.807L228.914 141.26C226.918 143.943 224.039 145.875 220.749 146.691L208.088 149.834C207.145 150.069 206.187 150.183 205.235 150.183" fill="#7F2D4C"/>
<path d="M177.869 98.4435C184.523 94.6021 198.099 90.998 207.562 89.7439C212.145 89.1375 216.668 91.197 219.178 95.0578L233.119 116.51C235.451 120.098 235.632 124.664 233.593 128.424L231.8 131.727C229.431 136.094 225.291 139.239 220.432 140.364L208.942 143.024C205.122 143.908 201.115 143.484 197.568 141.818L180.618 133.862L177.869 98.4435" fill="#BE3955"/>
<path d="M233.119 116.51L231.808 114.492C227.706 114.24 223.015 114.551 218.229 115.325C214.923 115.858 211.718 113.999 210.512 110.891C207.711 103.674 203.186 95.8691 199.909 91.083C198.394 91.4039 196.852 91.7609 195.314 92.1481C198.213 97.0149 201.536 105.283 203.492 112.843C204.312 116.015 202.75 119.331 199.738 120.657C195.282 122.62 191.466 124.963 188.897 127.571C188.176 128.303 187.94 129.378 188.275 130.346L189.784 134.698C190.704 137.346 192.657 139.514 195.205 140.709L197.568 141.818C201.115 143.484 205.123 143.908 208.942 143.024L220.432 140.364C225.291 139.239 229.431 136.094 231.801 131.727L233.593 128.424C235.632 124.664 235.451 120.098 233.119 116.51" fill="#F89D92"/>
<path d="M195.017 112.004C195.017 113.375 193.899 114.486 192.521 114.486C191.143 114.486 190.025 113.375 190.025 112.004C190.025 110.633 191.143 109.523 192.521 109.523C193.899 109.523 195.017 110.633 195.017 112.004Z" fill="#3D2443"/>
<path d="M219.611 106.357C219.611 107.728 218.493 108.839 217.115 108.839C215.737 108.839 214.62 107.728 214.62 106.357C214.62 104.986 215.737 103.875 217.115 103.875C218.493 103.875 219.611 104.986 219.611 106.357Z" fill="#3D2443"/>
<path d="M191.386 103.092C191.884 103.062 192.388 103.077 192.878 102.977C193.368 102.878 193.855 102.648 194.133 102.234C194.567 101.59 194.349 100.664 193.804 100.11C193.258 99.5561 192.466 99.3131 191.692 99.2122C189.64 98.9446 187.485 99.5763 185.907 100.908C185.427 101.313 184.991 101.791 184.741 102.366C184.492 102.941 184.447 103.625 184.729 104.186C184.973 104.672 185.561 105.097 186.129 105.081C186.683 105.064 187.141 104.542 187.597 104.27C188.742 103.586 190.052 103.174 191.386 103.092Z" fill="#F89D92"/>
<path d="M212.886 97.6978C212.506 97.8565 212.141 98.0562 211.735 98.15C211.329 98.2444 210.866 98.2192 210.473 97.9553C209.86 97.5428 209.598 96.6364 209.747 95.939C209.897 95.2424 210.369 94.7312 210.892 94.3533C212.28 93.3509 214.154 93.1123 215.922 93.7115C216.46 93.8947 216.999 94.1579 217.445 94.5776C217.89 94.9973 218.235 95.5907 218.283 96.195C218.325 96.7193 218.086 97.3171 217.661 97.5132C217.245 97.705 216.67 97.4101 216.21 97.3373C215.056 97.1534 213.904 97.2738 212.886 97.6978" fill="#F89D92"/>
<path d="M193.643 129.162L200.677 131.29C203.779 132.229 207.15 131.454 209.522 129.255L211.192 127.709C212.214 126.762 212.551 125.291 212.043 123.997L211.004 121.356L212.235 120.925L213.611 124.035C214.083 125.099 215.07 125.849 216.227 126.02L218.329 126.332C221.956 126.87 225.552 125.19 227.45 122.071L229.38 118.901L226.588 127.778C225.443 131.418 222.507 134.223 218.804 135.215L213.978 136.507C211.235 137.242 208.313 136.913 205.803 135.587L193.643 129.162" fill="#3D2443"/>
<path d="M226.185 139.784C225.813 137.917 225.396 136.04 224.592 134.314C224.307 133.702 223.967 133.112 223.575 132.56C222.859 131.551 221.966 130.676 220.884 130.08C218.342 128.68 215.128 129.011 212.483 130.206C210.719 131.005 209.078 132.21 208.124 133.888C207.712 134.611 207.459 135.43 207.373 136.258C208.957 136.807 210.643 137.002 212.308 136.82V136.82C212.891 139.143 213.07 141.79 213.314 144.173C213.559 146.554 214.234 149.043 216.007 150.665C217.22 151.776 218.891 152.377 220.539 152.295C222.186 152.213 223.789 151.448 224.885 150.222C226.101 148.861 226.659 147.016 226.76 145.198C226.861 143.381 226.541 141.569 226.185 139.784" fill="#F14984"/>
<path d="M213.838 115.507C210.384 115.923 207.002 116.935 203.889 118.482C202.744 119.051 202.834 120.711 204.027 121.172C205.219 121.632 206.446 121.999 207.672 122.172C208.958 122.353 210.306 122.41 211.525 121.958C212.794 121.488 213.815 120.499 214.559 119.373C214.921 118.827 215.194 118.151 215.435 117.456C215.796 116.415 214.938 115.374 213.838 115.507" fill="#3D2443"/>
<path d="M168.838 102.457L175.372 96.397C176.714 95.1516 178.911 95.9448 179.137 97.757L182.336 123.375C183.094 129.448 181.569 135.585 178.055 140.609L176.064 143.453C175.027 144.936 172.731 144.594 172.175 142.874L164.493 119.041C162.59 113.142 164.284 106.682 168.838 102.457" fill="#3D2443"/>
<path d="M189.402 160.793C190.584 158.318 193.056 156.703 195.811 156.609L202.51 156.379C204.227 156.32 205.83 157.233 206.649 158.735L208.508 162.144C209.213 163.436 209.141 165.01 208.322 166.234C207.717 167.138 206.766 167.756 205.69 167.944L200.648 168.825C197.555 169.365 194.429 168.061 192.649 165.488L189.402 160.793" fill="#3D2443"/>
<path d="M232.744 160.793C233.926 158.318 236.398 156.703 239.152 156.609L245.851 156.379C247.569 156.32 249.172 157.233 249.991 158.735L251.849 162.144C252.554 163.436 252.482 165.01 251.664 166.234C251.059 167.138 250.107 167.756 249.032 167.944L243.99 168.825C240.897 169.365 237.77 168.061 235.991 165.488L232.744 160.793" fill="#3D2443"/>
<path d="M269.601 282.605H19.3284C18.1314 282.605 17.1606 281.64 17.1606 280.449C17.1606 279.259 18.1314 278.294 19.3284 278.294H269.601C270.799 278.294 271.769 279.259 271.769 280.449C271.769 281.64 270.799 282.605 269.601 282.605" fill="#51ADBF"/>
</g>
<defs>
<clipPath id="clip0">
<rect width="282" height="282" fill="white"/>
</clipPath>
</defs>
</svg>
