<svg width="80" height="80" viewBox="0 0 80 80" fill="none" xmlns="http://www.w3.org/2000/svg">
<g clip-path="url(#clip0)">
<path d="M35.6338 8.54076C33.704 0.148732 26.4671 -2.87812 18.389 3.19653C14.9343 5.79426 11.6002 9.8572 8.94733 14.6879C-0.524227 19.794 -2.80113 32.4265 4.34915 40.4985C8.1805 44.8266 13.9757 46.8627 19.6331 45.9129C28.3701 44.4602 34.5666 36.3447 33.4763 27.3895C36.0373 20.561 36.8251 13.7214 35.6338 8.54076Z" fill="#784033"/>
<path d="M71.5228 14.953C68.8678 10.0435 65.5103 5.90728 62.0178 3.2572C53.8763 -2.92074 46.5797 0.142991 44.6755 8.62222C43.5524 13.6058 44.2601 20.1766 46.6138 26.739C45.1106 36.0821 51.6645 44.7401 60.8437 45.9834C66.5237 46.7819 72.368 44.5886 76.1417 39.9145C82.5189 32.0226 80.4674 20.1427 71.5228 14.953Z" fill="#61362B"/>
<path d="M65.1244 29.3456C63.8226 22.7383 60.6846 16.7343 56.2887 12.4399C51.5661 7.82831 45.7824 5.51703 39.9988 5.52953C34.0197 5.54203 28.0392 8.03771 23.2322 13.0431C18.9144 17.5407 15.9327 23.6291 14.8372 30.191C14.8341 30.2066 11.543 58.1155 11.543 58.3858C11.543 71.1549 27.4234 79.9718 39.9988 80H40.0581C52.6725 80 68.5749 71.1533 68.5749 58.3858C68.5749 58.178 65.3431 30.4598 65.1244 29.3456Z" fill="#F3D9AB"/>
<path d="M68.5747 58.3858C68.5747 71.1533 52.6723 80 40.0579 80H39.9985V5.52953C45.7822 5.51703 51.5659 7.82831 56.2885 12.4399C60.6844 16.7343 63.8224 22.7383 65.1241 29.3456C65.3429 30.4598 68.5747 58.178 68.5747 58.3858Z" fill="#EEC27B"/>
<path d="M42.4021 79.9016V58.8375C42.4021 57.5429 41.3525 56.4934 40.058 56.4934C38.7634 56.4934 37.7139 57.5429 37.7139 58.8375V79.9014C39.3049 80.0327 40.8082 80.0328 42.4021 79.9016Z" fill="#453D81"/>
<path d="M40.0582 56.4934C39.9694 56.4934 39.9988 54.7178 39.9988 79.9994C40.7669 80.0008 41.5448 79.9722 42.4023 79.9015V58.8375C42.4023 57.5429 41.3528 56.4934 40.0582 56.4934Z" fill="#2E2654"/>
<path d="M30.4159 35.0095C29.1213 35.0095 28.0718 33.96 28.0718 32.6654V29.9105C28.0718 28.6159 29.1213 27.5664 30.4159 27.5664C31.7104 27.5664 32.76 28.6159 32.76 29.9105V32.6654C32.76 33.96 31.7104 35.0095 30.4159 35.0095Z" fill="#453D81"/>
<path d="M48.3231 35.0095C47.0285 35.0095 45.979 33.96 45.979 32.6654V29.9105C45.979 28.6159 47.0285 27.5664 48.3231 27.5664C49.6177 27.5664 50.6672 28.6159 50.6672 29.9105V32.6654C50.6672 33.96 49.6177 35.0095 48.3231 35.0095Z" fill="#2E2654"/>
<path d="M42.4993 45.151H37.4626C31.3347 45.1821 28.9587 52.534 33.462 56.3167L38.4909 60.5408C39.357 61.2703 40.6315 61.2782 41.507 60.5408L46.5359 56.3167C51.0451 52.5262 48.656 45.151 42.4993 45.151Z" fill="#453D81"/>
<path d="M46.5354 56.3167L41.5066 60.5408C41.0706 60.908 40.5346 61.0909 39.9985 61.0909V45.151H42.4989C48.6539 45.151 51.0457 52.5254 46.5354 56.3167Z" fill="#2E2654"/>
</g>
<defs>
<clipPath id="clip0">
<rect width="80" height="80" fill="white"/>
</clipPath>
</defs>
</svg>
